<svg width="960" height="540" viewBox="0 0 960 540" fill="none" xmlns="http://www.w3.org/2000/svg">
  <rect width="960" height="540" rx="24" fill="#0D1117"/>
  <rect x="32" y="32" width="896" height="476" rx="20" fill="#161B22" stroke="#30363D" stroke-width="2"/>
  <text x="72" y="98" fill="#E6EDF3" font-family="JetBrains Mono, monospace" font-size="32" font-weight="700">Array</text>
  <text x="72" y="132" fill="#8B949E" font-family="IBM Plex Sans, sans-serif" font-size="18">Contiguous memory with constant-time index access</text>

  <g transform="translate(110 210)">
    <rect x="0" y="0" width="132" height="108" rx="12" fill="#0D1117" stroke="#58A6FF" stroke-width="3"/>
    <rect x="138" y="0" width="132" height="108" rx="12" fill="#0D1117" stroke="#58A6FF" stroke-width="3"/>
    <rect x="276" y="0" width="132" height="108" rx="12" fill="#0D1117" stroke="#39D353" stroke-width="4"/>
    <rect x="414" y="0" width="132" height="108" rx="12" fill="#0D1117" stroke="#58A6FF" stroke-width="3"/>
    <rect x="552" y="0" width="132" height="108" rx="12" fill="#0D1117" stroke="#58A6FF" stroke-width="3"/>

    <text x="66" y="-18" text-anchor="middle" fill="#8B949E" font-family="JetBrains Mono, monospace" font-size="18">0</text>
    <text x="204" y="-18" text-anchor="middle" fill="#8B949E" font-family="JetBrains Mono, monospace" font-size="18">1</text>
    <text x="342" y="-18" text-anchor="middle" fill="#39D353" font-family="JetBrains Mono, monospace" font-size="18">2</text>
    <text x="480" y="-18" text-anchor="middle" fill="#8B949E" font-family="JetBrains Mono, monospace" font-size="18">3</text>
    <text x="618" y="-18" text-anchor="middle" fill="#8B949E" font-family="JetBrains Mono, monospace" font-size="18">4</text>

    <text x="66" y="63" text-anchor="middle" fill="#E6EDF3" font-family="JetBrains Mono, monospace" font-size="30">17</text>
    <text x="204" y="63" text-anchor="middle" fill="#E6EDF3" font-family="JetBrains Mono, monospace" font-size="30">23</text>
    <text x="342" y="63" text-anchor="middle" fill="#E6EDF3" font-family="JetBrains Mono, monospace" font-size="30">42</text>
    <text x="480" y="63" text-anchor="middle" fill="#E6EDF3" font-family="JetBrains Mono, monospace" font-size="30">58</text>
    <text x="618" y="63" text-anchor="middle" fill="#E6EDF3" font-family="JetBrains Mono, monospace" font-size="30">91</text>

    <path d="M342 146V184" stroke="#39D353" stroke-width="3" stroke-linecap="round"/>
    <path d="M342 184L334 172" stroke="#39D353" stroke-width="3" stroke-linecap="round"/>
    <path d="M342 184L350 172" stroke="#39D353" stroke-width="3" stroke-linecap="round"/>
  </g>

  <text x="450" y="416" text-anchor="middle" fill="#39D353" font-family="IBM Plex Sans, sans-serif" font-size="22" font-weight="600">index = 2</text>
  <text x="450" y="448" text-anchor="middle" fill="#E6EDF3" font-family="JetBrains Mono, monospace" font-size="28">arr[2] -&gt; 42</text>
  <text x="760" y="448" text-anchor="end" fill="#58A6FF" font-family="JetBrains Mono, monospace" font-size="26" font-weight="700">O(1) access</text>
</svg>
