<svg width="960" height="540" viewBox="0 0 960 540" fill="none" xmlns="http://www.w3.org/2000/svg">
  <rect width="960" height="540" rx="24" fill="#0D1117"/>
  <rect x="32" y="32" width="896" height="476" rx="20" fill="#161B22" stroke="#30363D" stroke-width="2"/>
  <text x="72" y="98" fill="#E6EDF3" font-family="JetBrains Mono, monospace" font-size="32" font-weight="700">Big O Notation</text>
  <text x="72" y="132" fill="#8B949E" font-family="IBM Plex Sans, sans-serif" font-size="18">How algorithm growth changes as input size increases</text>

  <line x1="120" y1="430" x2="120" y2="170" stroke="#8B949E" stroke-width="3"/>
  <line x1="120" y1="430" x2="760" y2="430" stroke="#8B949E" stroke-width="3"/>
  <text x="84" y="180" fill="#8B949E" font-family="IBM Plex Sans, sans-serif" font-size="18" transform="rotate(-90 84 180)">growth</text>
  <text x="704" y="468" fill="#8B949E" font-family="IBM Plex Sans, sans-serif" font-size="18">input size n</text>

  <path d="M140 416C300 416 500 416 680 416" stroke="#39D353" stroke-width="4" stroke-linecap="round"/>
  <path d="M140 416C280 413 440 407 560 398C620 393 655 388 680 384" stroke="#58A6FF" stroke-width="4" stroke-linecap="round"/>
  <path d="M140 416C260 400 380 372 480 335C560 306 630 275 680 252" stroke="#D29922" stroke-width="4" stroke-linecap="round"/>
  <path d="M140 416C240 394 350 354 450 306C540 262 625 210 680 178" stroke="#A371F7" stroke-width="4" stroke-linecap="round"/>
  <path d="M140 416C190 384 240 330 300 260C368 176 450 114 530 74C590 46 645 32 680 26" stroke="#F85149" stroke-width="4" stroke-linecap="round"/>

  <g font-family="JetBrains Mono, monospace" font-size="20" font-weight="600">
    <text x="706" y="420" fill="#39D353">O(1)</text>
    <text x="706" y="388" fill="#58A6FF">O(log n)</text>
    <text x="706" y="256" fill="#D29922">O(n)</text>
    <text x="706" y="182" fill="#A371F7">O(n log n)</text>
    <text x="706" y="30" fill="#F85149">O(n²)</text>
  </g>

  <text x="120" y="478" fill="#8B949E" font-family="IBM Plex Sans, sans-serif" font-size="16">better</text>
  <text x="720" y="478" fill="#8B949E" font-family="IBM Plex Sans, sans-serif" font-size="16">worse</text>
</svg>
