<svg width="960" height="540" viewBox="0 0 960 540" fill="none" xmlns="http://www.w3.org/2000/svg">
  <rect width="960" height="540" rx="24" fill="#0D1117"/>
  <rect x="32" y="32" width="896" height="476" rx="20" fill="#161B22" stroke="#30363D" stroke-width="2"/>
  <text x="72" y="98" fill="#E6EDF3" font-family="JetBrains Mono, monospace" font-size="32" font-weight="700">Binary Search Tree</text>
  <text x="72" y="132" fill="#8B949E" font-family="IBM Plex Sans, sans-serif" font-size="18">Left subtree values are smaller; right subtree values are larger</text>

  <g stroke-linecap="round" stroke-width="4">
    <path d="M480 170L330 258" stroke="#58A6FF"/>
    <path d="M480 170L630 258" stroke="#39D353"/>
    <path d="M330 258L240 346" stroke="#58A6FF"/>
    <path d="M330 258L390 346" stroke="#58A6FF"/>
    <path d="M630 258L570 346" stroke="#39D353"/>
    <path d="M630 258L720 346" stroke="#39D353"/>
  </g>

  <g font-family="JetBrains Mono, monospace" font-size="28" font-weight="700" text-anchor="middle">
    <circle cx="480" cy="150" r="44" fill="#0D1117" stroke="#E6EDF3" stroke-width="3"/>
    <text x="480" y="160" fill="#E6EDF3">8</text>

    <circle cx="330" cy="278" r="40" fill="#0D1117" stroke="#58A6FF" stroke-width="3"/>
    <text x="330" y="288" fill="#58A6FF">3</text>

    <circle cx="630" cy="278" r="40" fill="#0D1117" stroke="#39D353" stroke-width="3"/>
    <text x="630" y="288" fill="#39D353">10</text>

    <circle cx="240" cy="366" r="36" fill="#0D1117" stroke="#58A6FF" stroke-width="3"/>
    <text x="240" y="376" fill="#58A6FF">1</text>

    <circle cx="390" cy="366" r="36" fill="#0D1117" stroke="#58A6FF" stroke-width="3"/>
    <text x="390" y="376" fill="#58A6FF">6</text>

    <circle cx="570" cy="366" r="36" fill="#0D1117" stroke="#39D353" stroke-width="3"/>
    <text x="570" y="376" fill="#39D353">9</text>

    <circle cx="720" cy="366" r="36" fill="#0D1117" stroke="#39D353" stroke-width="3"/>
    <text x="720" y="376" fill="#39D353">14</text>
  </g>

  <text x="226" y="206" fill="#58A6FF" font-family="IBM Plex Sans, sans-serif" font-size="22" font-weight="600">left &lt; node</text>
  <text x="642" y="206" fill="#39D353" font-family="IBM Plex Sans, sans-serif" font-size="22" font-weight="600">right &gt; node</text>
  <text x="480" y="468" text-anchor="middle" fill="#8B949E" font-family="IBM Plex Sans, sans-serif" font-size="20">Search and insertion follow the ordering rule down the tree</text>
</svg>
