<svg width="960" height="540" viewBox="0 0 960 540" fill="none" xmlns="http://www.w3.org/2000/svg">
  <rect width="960" height="540" rx="24" fill="#0D1117"/>
  <rect x="32" y="32" width="896" height="476" rx="20" fill="#161B22" stroke="#30363D" stroke-width="2"/>
  <text x="72" y="98" fill="#E6EDF3" font-family="JetBrains Mono, monospace" font-size="32" font-weight="700">Binary Search</text>
  <text x="72" y="132" fill="#8B949E" font-family="IBM Plex Sans, sans-serif" font-size="18">Repeatedly inspect the middle of a sorted search space</text>

  <text x="110" y="196" fill="#8B949E" font-family="IBM Plex Sans, sans-serif" font-size="18">sorted array</text>
  <g transform="translate(90 218)">
    <rect x="0" y="0" width="82" height="82" rx="10" fill="#0D1117" stroke="#30363D" stroke-width="2"/>
    <rect x="88" y="0" width="82" height="82" rx="10" fill="#0D1117" stroke="#30363D" stroke-width="2"/>
    <rect x="176" y="0" width="82" height="82" rx="10" fill="#0D1117" stroke="#30363D" stroke-width="2"/>
    <rect x="264" y="0" width="82" height="82" rx="10" fill="#0D1117" stroke="#58A6FF" stroke-width="2"/>
    <rect x="352" y="0" width="82" height="82" rx="12" fill="#0D1117" stroke="#39D353" stroke-width="4"/>
    <rect x="440" y="0" width="82" height="82" rx="10" fill="#0D1117" stroke="#58A6FF" stroke-width="2"/>
    <rect x="528" y="0" width="82" height="82" rx="10" fill="#0D1117" stroke="#30363D" stroke-width="2"/>
    <rect x="616" y="0" width="82" height="82" rx="10" fill="#0D1117" stroke="#30363D" stroke-width="2"/>
    <rect x="704" y="0" width="82" height="82" rx="10" fill="#0D1117" stroke="#30363D" stroke-width="2"/>

    <g fill="#E6EDF3" font-family="JetBrains Mono, monospace" font-size="28" text-anchor="middle">
      <text x="41" y="50">3</text>
      <text x="129" y="50">7</text>
      <text x="217" y="50">12</text>
      <text x="305" y="50">18</text>
      <text x="393" y="50">24</text>
      <text x="481" y="50">31</text>
      <text x="569" y="50">42</text>
      <text x="657" y="50">57</text>
      <text x="745" y="50">73</text>
    </g>
  </g>

  <path d="M482 178V212" stroke="#39D353" stroke-width="3" stroke-linecap="round"/>
  <path d="M482 212L474 200" stroke="#39D353" stroke-width="3" stroke-linecap="round"/>
  <path d="M482 212L490 200" stroke="#39D353" stroke-width="3" stroke-linecap="round"/>
  <text x="500" y="184" fill="#39D353" font-family="JetBrains Mono, monospace" font-size="20">mid</text>

  <path d="M300 348C262 382 218 404 170 416" stroke="#58A6FF" stroke-width="4" stroke-linecap="round"/>
  <path d="M664 348C702 382 746 404 794 416" stroke="#58A6FF" stroke-width="4" stroke-linecap="round"/>
  <text x="122" y="440" fill="#58A6FF" font-family="IBM Plex Sans, sans-serif" font-size="20">target smaller -&gt; search left half</text>
  <text x="574" y="440" fill="#58A6FF" font-family="IBM Plex Sans, sans-serif" font-size="20">target larger -&gt; search right half</text>
  <text x="744" y="128" fill="#39D353" font-family="JetBrains Mono, monospace" font-size="26" font-weight="700">O(log n)</text>
</svg>
