<svg width="960" height="540" viewBox="0 0 960 540" fill="none" xmlns="http://www.w3.org/2000/svg">
  <rect width="960" height="540" rx="24" fill="#0D1117"/>
  <rect x="32" y="32" width="896" height="476" rx="20" fill="#161B22" stroke="#30363D" stroke-width="2"/>
  <text x="72" y="98" fill="#E6EDF3" font-family="JetBrains Mono, monospace" font-size="32" font-weight="700">Breadth-First Search</text>
  <text x="72" y="132" fill="#8B949E" font-family="IBM Plex Sans, sans-serif" font-size="18">Visit nodes level by level using a queue</text>

  <g stroke="#30363D" stroke-width="4" stroke-linecap="round">
    <path d="M320 160L220 258"/>
    <path d="M320 160L420 258"/>
    <path d="M220 258L150 356"/>
    <path d="M220 258L290 356"/>
    <path d="M420 258L350 356"/>
    <path d="M420 258L490 356"/>
  </g>

  <g font-family="JetBrains Mono, monospace" font-size="22" font-weight="700" text-anchor="middle">
    <circle cx="320" cy="160" r="34" fill="#0D1117" stroke="#39D353" stroke-width="4"/>
    <text x="320" y="168" fill="#39D353">1</text>

    <circle cx="220" cy="258" r="32" fill="#0D1117" stroke="#58A6FF" stroke-width="3"/>
    <text x="220" y="266" fill="#58A6FF">2</text>

    <circle cx="420" cy="258" r="32" fill="#0D1117" stroke="#58A6FF" stroke-width="3"/>
    <text x="420" y="266" fill="#58A6FF">3</text>

    <circle cx="150" cy="356" r="30" fill="#0D1117" stroke="#D29922" stroke-width="3"/>
    <text x="150" y="364" fill="#D29922">4</text>

    <circle cx="290" cy="356" r="30" fill="#0D1117" stroke="#D29922" stroke-width="3"/>
    <text x="290" y="364" fill="#D29922">5</text>

    <circle cx="350" cy="356" r="30" fill="#0D1117" stroke="#D29922" stroke-width="3"/>
    <text x="350" y="364" fill="#D29922">6</text>

    <circle cx="490" cy="356" r="30" fill="#0D1117" stroke="#D29922" stroke-width="3"/>
    <text x="490" y="364" fill="#D29922">7</text>
  </g>

  <text x="120" y="448" fill="#8B949E" font-family="IBM Plex Sans, sans-serif" font-size="18">level 0</text>
  <text x="120" y="476" fill="#8B949E" font-family="IBM Plex Sans, sans-serif" font-size="18">level 1</text>
  <text x="120" y="504" fill="#8B949E" font-family="IBM Plex Sans, sans-serif" font-size="18">level 2</text>

  <g transform="translate(600 190)">
    <rect x="0" y="0" width="240" height="136" rx="16" fill="#0D1117" stroke="#30363D" stroke-width="2"/>
    <text x="26" y="32" fill="#E6EDF3" font-family="JetBrains Mono, monospace" font-size="20">queue</text>
    <rect x="24" y="54" width="44" height="44" rx="10" fill="#0D1117" stroke="#39D353" stroke-width="3"/>
    <rect x="76" y="54" width="44" height="44" rx="10" fill="#0D1117" stroke="#58A6FF" stroke-width="3"/>
    <rect x="128" y="54" width="44" height="44" rx="10" fill="#0D1117" stroke="#58A6FF" stroke-width="3"/>
    <rect x="180" y="54" width="36" height="44" rx="10" fill="#0D1117" stroke="#30363D" stroke-width="2"/>
    <text x="46" y="82" text-anchor="middle" fill="#39D353" font-family="JetBrains Mono, monospace" font-size="20">1</text>
    <text x="98" y="82" text-anchor="middle" fill="#58A6FF" font-family="JetBrains Mono, monospace" font-size="20">2</text>
    <text x="150" y="82" text-anchor="middle" fill="#58A6FF" font-family="JetBrains Mono, monospace" font-size="20">3</text>
    <text x="24" y="112" fill="#8B949E" font-family="IBM Plex Sans, sans-serif" font-size="15">dequeue front,</text>
    <text x="24" y="130" fill="#8B949E" font-family="IBM Plex Sans, sans-serif" font-size="15">enqueue next layer</text>
  </g>
</svg>
