<svg width="960" height="540" viewBox="0 0 960 540" fill="none" xmlns="http://www.w3.org/2000/svg">
  <rect width="960" height="540" rx="24" fill="#0D1117"/>
  <rect x="32" y="32" width="896" height="476" rx="20" fill="#161B22" stroke="#30363D" stroke-width="2"/>
  <text x="72" y="98" fill="#E6EDF3" font-family="JetBrains Mono, monospace" font-size="32" font-weight="700">Coupling</text>
  <text x="72" y="132" fill="#8B949E" font-family="IBM Plex Sans, sans-serif" font-size="18">How much one part of a system depends on another part</text>
  <rect x="104" y="188" width="236" height="160" rx="18" fill="#0D1117" stroke="#F85149" stroke-width="3"/>
  <text x="222" y="244" text-anchor="middle" fill="#F85149" font-family="JetBrains Mono, monospace" font-size="24" font-weight="700">Tight</text>
  <text x="222" y="288" text-anchor="middle" fill="#E6EDF3" font-family="IBM Plex Sans, sans-serif" font-size="18">concrete details</text>
  <rect x="620" y="188" width="236" height="160" rx="18" fill="#0D1117" stroke="#39D353" stroke-width="3"/>
  <text x="738" y="244" text-anchor="middle" fill="#39D353" font-family="JetBrains Mono, monospace" font-size="24" font-weight="700">Loose</text>
  <text x="738" y="288" text-anchor="middle" fill="#E6EDF3" font-family="IBM Plex Sans, sans-serif" font-size="18">small contract</text>
  <rect x="388" y="216" width="184" height="104" rx="16" fill="#0D1117" stroke="#58A6FF" stroke-width="3"/>
  <text x="480" y="276" text-anchor="middle" fill="#58A6FF" font-family="JetBrains Mono, monospace" font-size="22" font-weight="700">Interface</text>
  <path d="M340 268H388M572 268H620" stroke="#58A6FF" stroke-width="4" stroke-linecap="round"/>
  <path d="M170 376C254 420 330 420 414 376" stroke="#F85149" stroke-width="4" stroke-linecap="round" stroke-dasharray="10 12"/>
  <path d="M546 376C630 420 706 420 790 376" stroke="#39D353" stroke-width="4" stroke-linecap="round"/>
  <text x="480" y="454" text-anchor="middle" fill="#8B949E" font-family="IBM Plex Sans, sans-serif" font-size="20">Loose coupling keeps collaboration explicit while leaving room for change</text>
</svg>
