<svg width="960" height="540" viewBox="0 0 960 540" fill="none" xmlns="http://www.w3.org/2000/svg">
  <rect width="960" height="540" rx="24" fill="#0D1117"/>
  <rect x="32" y="32" width="896" height="476" rx="20" fill="#161B22" stroke="#30363D" stroke-width="2"/>
  <text x="72" y="98" fill="#E6EDF3" font-family="JetBrains Mono, monospace" font-size="32" font-weight="700">Dynamic Programming</text>
  <text x="72" y="132" fill="#8B949E" font-family="IBM Plex Sans, sans-serif" font-size="18">Break a problem into overlapping subproblems and reuse cached answers</text>

  <rect x="90" y="188" width="248" height="166" rx="18" fill="#0D1117" stroke="#58A6FF" stroke-width="3"/>
  <text x="118" y="224" fill="#58A6FF" font-family="JetBrains Mono, monospace" font-size="22" font-weight="700">recursive calls</text>
  <circle cx="214" cy="274" r="26" fill="#161B22" stroke="#30363D" stroke-width="2"/>
  <circle cx="162" cy="322" r="22" fill="#161B22" stroke="#30363D" stroke-width="2"/>
  <circle cx="214" cy="322" r="22" fill="#161B22" stroke="#30363D" stroke-width="2"/>
  <circle cx="266" cy="322" r="22" fill="#161B22" stroke="#30363D" stroke-width="2"/>
  <text x="214" y="281" text-anchor="middle" fill="#E6EDF3" font-family="JetBrains Mono, monospace" font-size="18">F(5)</text>
  <text x="162" y="329" text-anchor="middle" fill="#E6EDF3" font-family="JetBrains Mono, monospace" font-size="16">F(4)</text>
  <text x="214" y="329" text-anchor="middle" fill="#F85149" font-family="JetBrains Mono, monospace" font-size="16">F(3)</text>
  <text x="266" y="329" text-anchor="middle" fill="#F85149" font-family="JetBrains Mono, monospace" font-size="16">F(3)</text>
  <path d="M214 300L162 304" stroke="#30363D" stroke-width="3" stroke-linecap="round"/>
  <path d="M214 300V300" stroke="#30363D" stroke-width="3" stroke-linecap="round"/>
  <path d="M214 300L266 304" stroke="#30363D" stroke-width="3" stroke-linecap="round"/>

  <rect x="390" y="188" width="192" height="166" rx="18" fill="#0D1117" stroke="#39D353" stroke-width="3"/>
  <text x="418" y="224" fill="#39D353" font-family="JetBrains Mono, monospace" font-size="22" font-weight="700">memo table</text>
  <rect x="426" y="252" width="120" height="34" rx="8" fill="#161B22" stroke="#30363D" stroke-width="2"/>
  <rect x="426" y="296" width="120" height="34" rx="8" fill="#161B22" stroke="#30363D" stroke-width="2"/>
  <text x="486" y="274" text-anchor="middle" fill="#E6EDF3" font-family="JetBrains Mono, monospace" font-size="18">F(3) = 2</text>
  <text x="486" y="318" text-anchor="middle" fill="#E6EDF3" font-family="JetBrains Mono, monospace" font-size="18">F(4) = 3</text>

  <rect x="634" y="188" width="236" height="166" rx="18" fill="#0D1117" stroke="#D29922" stroke-width="3"/>
  <text x="662" y="224" fill="#D29922" font-family="JetBrains Mono, monospace" font-size="22" font-weight="700">reuse result</text>
  <text x="662" y="270" fill="#E6EDF3" font-family="JetBrains Mono, monospace" font-size="20">need F(3) again?</text>
  <text x="662" y="304" fill="#39D353" font-family="JetBrains Mono, monospace" font-size="20">look it up —</text>
  <text x="662" y="330" fill="#39D353" font-family="JetBrains Mono, monospace" font-size="20">don't recompute</text>

  <path d="M338 270H390" stroke="#58A6FF" stroke-width="4" stroke-linecap="round"/>
  <path d="M582 270H634" stroke="#39D353" stroke-width="4" stroke-linecap="round"/>
  <text x="480" y="436" text-anchor="middle" fill="#8B949E" font-family="IBM Plex Sans, sans-serif" font-size="20">Dynamic programming saves work by caching answers to repeated subproblems</text>
</svg>
