<svg width="960" height="540" viewBox="0 0 960 540" fill="none" xmlns="http://www.w3.org/2000/svg">
  <rect width="960" height="540" rx="24" fill="#0D1117"/>
  <rect x="32" y="32" width="896" height="476" rx="20" fill="#161B22" stroke="#30363D" stroke-width="2"/>
  <text x="72" y="98" fill="#E6EDF3" font-family="JetBrains Mono, monospace" font-size="32" font-weight="700">Heap</text>
  <text x="72" y="132" fill="#8B949E" font-family="IBM Plex Sans, sans-serif" font-size="18">A complete binary tree that keeps the smallest or largest value at the top</text>

  <g stroke="#30363D" stroke-width="4" stroke-linecap="round">
    <path d="M478 164L344 252"/>
    <path d="M478 164L612 252"/>
    <path d="M344 252L258 344"/>
    <path d="M344 252L430 344"/>
    <path d="M612 252L526 344"/>
    <path d="M612 252L698 344"/>
  </g>

  <g font-family="JetBrains Mono, monospace" font-size="24" font-weight="700" text-anchor="middle">
    <circle cx="478" cy="144" r="38" fill="#0D1117" stroke="#39D353" stroke-width="4"/>
    <text x="478" y="152" fill="#39D353">1</text>
    <circle cx="344" cy="272" r="34" fill="#0D1117" stroke="#58A6FF" stroke-width="3"/>
    <text x="344" y="280" fill="#E6EDF3">3</text>
    <circle cx="612" cy="272" r="34" fill="#0D1117" stroke="#58A6FF" stroke-width="3"/>
    <text x="612" y="280" fill="#E6EDF3">6</text>
    <circle cx="258" cy="364" r="30" fill="#0D1117" stroke="#58A6FF" stroke-width="3"/>
    <text x="258" y="372" fill="#E6EDF3">5</text>
    <circle cx="430" cy="364" r="30" fill="#0D1117" stroke="#58A6FF" stroke-width="3"/>
    <text x="430" y="372" fill="#E6EDF3">8</text>
    <circle cx="526" cy="364" r="30" fill="#0D1117" stroke="#58A6FF" stroke-width="3"/>
    <text x="526" y="372" fill="#E6EDF3">7</text>
    <circle cx="698" cy="364" r="30" fill="#0D1117" stroke="#58A6FF" stroke-width="3"/>
    <text x="698" y="372" fill="#E6EDF3">9</text>
  </g>

  <text x="748" y="160" fill="#39D353" font-family="IBM Plex Sans, sans-serif" font-size="22" font-weight="600">min-heap</text>
  <text x="748" y="194" fill="#8B949E" font-family="IBM Plex Sans, sans-serif" font-size="18">parent &lt;= children</text>
  <rect x="90" y="408" width="780" height="62" rx="14" fill="#0D1117" stroke="#30363D" stroke-width="2"/>
  <text x="118" y="446" fill="#8B949E" font-family="IBM Plex Sans, sans-serif" font-size="20">Heaps power priority queues because the highest-priority element stays near the root</text>
</svg>
