<svg width="960" height="540" viewBox="0 0 960 540" fill="none" xmlns="http://www.w3.org/2000/svg">
  <rect width="960" height="540" rx="24" fill="#0D1117"/>
  <rect x="32" y="32" width="896" height="476" rx="20" fill="#161B22" stroke="#30363D" stroke-width="2"/>
  <text x="72" y="98" fill="#E6EDF3" font-family="JetBrains Mono, monospace" font-size="30" font-weight="700">Higher-Order Function</text>
  <text x="72" y="132" fill="#8B949E" font-family="IBM Plex Sans, sans-serif" font-size="18">A function can receive other functions as input or return a new function</text>

  <rect x="92" y="194" width="248" height="160" rx="18" fill="#0D1117" stroke="#58A6FF" stroke-width="3"/>
  <text x="120" y="230" fill="#58A6FF" font-family="JetBrains Mono, monospace" font-size="22" font-weight="700">input function</text>
  <rect x="122" y="258" width="188" height="58" rx="12" fill="#161B22" stroke="#30363D" stroke-width="2"/>
  <text x="216" y="292" text-anchor="middle" fill="#E6EDF3" font-family="JetBrains Mono, monospace" font-size="20">x =&gt; x * x</text>

  <rect x="384" y="164" width="206" height="220" rx="18" fill="#0D1117" stroke="#39D353" stroke-width="3"/>
  <text x="412" y="200" fill="#39D353" font-family="JetBrains Mono, monospace" font-size="22" font-weight="700">map(...)</text>
  <text x="412" y="248" fill="#E6EDF3" font-family="JetBrains Mono, monospace" font-size="18">takes function</text>
  <text x="412" y="284" fill="#E6EDF3" font-family="JetBrains Mono, monospace" font-size="15">applies to each item</text>
  <text x="412" y="318" fill="#E6EDF3" font-family="JetBrains Mono, monospace" font-size="15">returns new result</text>

  <rect x="634" y="194" width="232" height="160" rx="18" fill="#0D1117" stroke="#D29922" stroke-width="3"/>
  <text x="662" y="230" fill="#D29922" font-family="JetBrains Mono, monospace" font-size="22" font-weight="700">result</text>
  <rect x="664" y="258" width="172" height="58" rx="12" fill="#161B22" stroke="#30363D" stroke-width="2"/>
  <text x="750" y="292" text-anchor="middle" fill="#E6EDF3" font-family="JetBrains Mono, monospace" font-size="20">[1, 4, 9]</text>

  <path d="M340 274H384" stroke="#58A6FF" stroke-width="4" stroke-linecap="round"/>
  <path d="M590 274H634" stroke="#39D353" stroke-width="4" stroke-linecap="round"/>
  <text x="480" y="438" text-anchor="middle" fill="#8B949E" font-family="IBM Plex Sans, sans-serif" font-size="20">Common examples include map, filter, reduce, and functions that return customized behavior</text>
</svg>
