<svg width="960" height="540" viewBox="0 0 960 540" fill="none" xmlns="http://www.w3.org/2000/svg">
  <rect width="960" height="540" rx="24" fill="#0D1117"/>
  <rect x="32" y="32" width="896" height="476" rx="20" fill="#161B22" stroke="#30363D" stroke-width="2"/>
  <text x="72" y="98" fill="#E6EDF3" font-family="JetBrains Mono, monospace" font-size="30" font-weight="700">Index (Database)</text>
  <text x="72" y="132" fill="#8B949E" font-family="IBM Plex Sans, sans-serif" font-size="18">An index helps the database find matching rows quickly without scanning everything</text>

  <rect x="92" y="190" width="250" height="180" rx="18" fill="#0D1117" stroke="#58A6FF" stroke-width="3"/>
  <text x="120" y="226" fill="#58A6FF" font-family="JetBrains Mono, monospace" font-size="22" font-weight="700">query</text>
  <text x="120" y="276" fill="#E6EDF3" font-family="JetBrains Mono, monospace" font-size="18">WHERE email =</text>
  <text x="120" y="308" fill="#E6EDF3" font-family="JetBrains Mono, monospace" font-size="18">'alice@example.com'</text>
  <text x="120" y="338" fill="#8B949E" font-family="IBM Plex Sans, sans-serif" font-size="16">look up matching</text>
  <text x="120" y="358" fill="#8B949E" font-family="IBM Plex Sans, sans-serif" font-size="16">rows fast</text>

  <rect x="376" y="162" width="216" height="236" rx="18" fill="#0D1117" stroke="#39D353" stroke-width="3"/>
  <text x="404" y="198" fill="#39D353" font-family="JetBrains Mono, monospace" font-size="22" font-weight="700">index</text>
  <rect x="410" y="226" width="148" height="34" rx="8" fill="#161B22" stroke="#30363D" stroke-width="2"/>
  <rect x="410" y="270" width="148" height="34" rx="8" fill="#161B22" stroke="#39D353" stroke-width="2"/>
  <rect x="410" y="314" width="148" height="34" rx="8" fill="#161B22" stroke="#30363D" stroke-width="2"/>
  <text x="484" y="248" text-anchor="middle" fill="#8B949E" font-family="JetBrains Mono, monospace" font-size="16">anna@...</text>
  <text x="484" y="292" text-anchor="middle" fill="#E6EDF3" font-family="JetBrains Mono, monospace" font-size="14">alice@... → row 42</text>
  <text x="484" y="336" text-anchor="middle" fill="#8B949E" font-family="JetBrains Mono, monospace" font-size="16">bob@...</text>

  <rect x="626" y="190" width="250" height="180" rx="18" fill="#0D1117" stroke="#D29922" stroke-width="3"/>
  <text x="654" y="226" fill="#D29922" font-family="JetBrains Mono, monospace" font-size="22" font-weight="700">table rows</text>
  <rect x="656" y="250" width="190" height="34" rx="8" fill="#161B22" stroke="#30363D" stroke-width="2"/>
  <rect x="656" y="294" width="190" height="34" rx="8" fill="#161B22" stroke="#39D353" stroke-width="2"/>
  <text x="751" y="272" text-anchor="middle" fill="#8B949E" font-family="JetBrains Mono, monospace" font-size="16">row 41</text>
  <text x="751" y="316" text-anchor="middle" fill="#E6EDF3" font-family="JetBrains Mono, monospace" font-size="16">row 42</text>

  <path d="M342 284H376" stroke="#58A6FF" stroke-width="4" stroke-linecap="round"/>
  <path d="M592 292H626" stroke="#39D353" stroke-width="4" stroke-linecap="round"/>
  <text x="480" y="440" text-anchor="middle" fill="#8B949E" font-family="IBM Plex Sans, sans-serif" font-size="20">Indexes speed reads by narrowing the search path, but they also add storage and write overhead</text>
</svg>
