<svg width="960" height="540" viewBox="0 0 960 540" fill="none" xmlns="http://www.w3.org/2000/svg">
  <rect width="960" height="540" rx="24" fill="#0D1117"/>
  <rect x="32" y="32" width="896" height="476" rx="20" fill="#161B22" stroke="#30363D" stroke-width="2"/>
  <text x="72" y="98" fill="#E6EDF3" font-family="JetBrains Mono, monospace" font-size="32" font-weight="700">Merge Sort</text>
  <text x="72" y="132" fill="#8B949E" font-family="IBM Plex Sans, sans-serif" font-size="18">Split the array into halves, sort each half, then merge them back together</text>

  <g font-family="JetBrains Mono, monospace" font-size="22" text-anchor="middle">
    <rect x="238" y="170" width="484" height="52" rx="12" fill="#0D1117" stroke="#58A6FF" stroke-width="3"/>
    <text x="480" y="203" fill="#E6EDF3">[8, 3, 5, 1]</text>

    <rect x="210" y="272" width="196" height="48" rx="12" fill="#0D1117" stroke="#39D353" stroke-width="3"/>
    <rect x="554" y="272" width="196" height="48" rx="12" fill="#0D1117" stroke="#39D353" stroke-width="3"/>
    <text x="308" y="303" fill="#E6EDF3">[8, 3]</text>
    <text x="652" y="303" fill="#E6EDF3">[5, 1]</text>

    <rect x="136" y="366" width="120" height="44" rx="12" fill="#0D1117" stroke="#30363D" stroke-width="2"/>
    <rect x="286" y="366" width="120" height="44" rx="12" fill="#0D1117" stroke="#30363D" stroke-width="2"/>
    <rect x="554" y="366" width="120" height="44" rx="12" fill="#0D1117" stroke="#30363D" stroke-width="2"/>
    <rect x="704" y="366" width="120" height="44" rx="12" fill="#0D1117" stroke="#30363D" stroke-width="2"/>
    <text x="196" y="394" fill="#E6EDF3">[8]</text>
    <text x="346" y="394" fill="#E6EDF3">[3]</text>
    <text x="614" y="394" fill="#E6EDF3">[5]</text>
    <text x="764" y="394" fill="#E6EDF3">[1]</text>

    <rect x="314" y="442" width="332" height="54" rx="12" fill="#0D1117" stroke="#D29922" stroke-width="3"/>
    <text x="480" y="476" fill="#E6EDF3">[1, 3, 5, 8]</text>
  </g>

  <path d="M480 222L308 272" stroke="#58A6FF" stroke-width="4" stroke-linecap="round"/>
  <path d="M480 222L652 272" stroke="#58A6FF" stroke-width="4" stroke-linecap="round"/>
  <path d="M308 320L196 366" stroke="#39D353" stroke-width="4" stroke-linecap="round"/>
  <path d="M308 320L346 366" stroke="#39D353" stroke-width="4" stroke-linecap="round"/>
  <path d="M652 320L614 366" stroke="#39D353" stroke-width="4" stroke-linecap="round"/>
  <path d="M652 320L764 366" stroke="#39D353" stroke-width="4" stroke-linecap="round"/>
  <path d="M346 410L450 442" stroke="#D29922" stroke-width="4" stroke-linecap="round"/>
  <path d="M614 410L510 442" stroke="#D29922" stroke-width="4" stroke-linecap="round"/>
</svg>
