<svg width="960" height="540" viewBox="0 0 960 540" fill="none" xmlns="http://www.w3.org/2000/svg">
  <rect width="960" height="540" rx="24" fill="#0D1117"/>
  <rect x="32" y="32" width="896" height="476" rx="20" fill="#161B22" stroke="#30363D" stroke-width="2"/>
  <text x="72" y="98" fill="#E6EDF3" font-family="JetBrains Mono, monospace" font-size="32" font-weight="700">SQL JOIN</text>
  <text x="72" y="132" fill="#8B949E" font-family="IBM Plex Sans, sans-serif" font-size="18">A join combines rows from related tables using matching keys</text>

  <rect x="106" y="178" width="252" height="218" rx="18" fill="#0D1117" stroke="#58A6FF" stroke-width="3"/>
  <text x="134" y="214" fill="#58A6FF" font-family="JetBrains Mono, monospace" font-size="22" font-weight="700">users</text>
  <rect x="138" y="238" width="188" height="38" rx="8" fill="#161B22" stroke="#30363D" stroke-width="2"/>
  <rect x="138" y="286" width="188" height="38" rx="8" fill="#161B22" stroke="#39D353" stroke-width="2"/>
  <text x="232" y="262" text-anchor="middle" fill="#8B949E" font-family="JetBrains Mono, monospace" font-size="16">id 1 | Alice</text>
  <text x="232" y="310" text-anchor="middle" fill="#E6EDF3" font-family="JetBrains Mono, monospace" font-size="16">id 2 | Bob</text>

  <rect x="602" y="178" width="252" height="218" rx="18" fill="#0D1117" stroke="#D29922" stroke-width="3"/>
  <text x="630" y="214" fill="#D29922" font-family="JetBrains Mono, monospace" font-size="22" font-weight="700">orders</text>
  <rect x="634" y="238" width="188" height="38" rx="8" fill="#161B22" stroke="#30363D" stroke-width="2"/>
  <rect x="634" y="286" width="188" height="38" rx="8" fill="#161B22" stroke="#39D353" stroke-width="2"/>
  <text x="728" y="262" text-anchor="middle" fill="#8B949E" font-family="JetBrains Mono, monospace" font-size="16">id 8 | user 1</text>
  <text x="728" y="310" text-anchor="middle" fill="#E6EDF3" font-family="JetBrains Mono, monospace" font-size="16">id 9 | user 2</text>

  <rect x="392" y="236" width="176" height="98" rx="18" fill="#0D1117" stroke="#39D353" stroke-width="3"/>
  <text x="480" y="272" text-anchor="middle" fill="#39D353" font-family="JetBrains Mono, monospace" font-size="22">ON</text>
  <text x="480" y="308" text-anchor="middle" fill="#E6EDF3" font-family="JetBrains Mono, monospace" font-size="18">users.id = orders.user_id</text>

  <path d="M358 286H392" stroke="#58A6FF" stroke-width="4" stroke-linecap="round"/>
  <path d="M568 286H602" stroke="#D29922" stroke-width="4" stroke-linecap="round"/>
  <text x="480" y="448" text-anchor="middle" fill="#8B949E" font-family="IBM Plex Sans, sans-serif" font-size="20">Joins let SQL answer questions that need data from multiple related tables at once</text>
</svg>
